<svg xmlns="http://www.w3.org/2000/svg" aria-hidden="true" class="eds_5nt5ak0 eds_5nt5ak9 eds_14hl3lj7" width="24" height="24" viewBox="0 0 24 24"><path d="M12.75 8.5a.75.75 0 0 0-1.5 0v2.75H8.5a.75.75 0 0 0 0 1.5h2.75v2.75a.75.75 0 0 0 1.5 0v-2.75h2.75a.75.75 0 0 0 0-1.5h-2.75z"></path><path d="M12 2.25c-5.385 0-9.75 4.365-9.75 9.75s4.365 9.75 9.75 9.75 9.75-4.365 9.75-9.75S17.385 2.25 12 2.25M3.75 12a8.25 8.25 0 1 1 16.5 0 8.25 8.25 0 0 1-16.5 0" clip-rule="evenodd" fill-rule="evenodd"></path></svg>